<svg xmlns="http://www.w3.org/2000/svg" width="132.148" height="86.353" viewBox="0 0 132.148 86.353">
  <g id="Group_386" data-name="Group 386" transform="translate(-1081.998 -2264.5)">
    <g id="Group_381" data-name="Group 381" transform="translate(1083.998 2266.5)">
      <line id="Line_81" data-name="Line 81" y2="23.328" transform="translate(128.148 27.493)" fill="none" stroke="#fff" stroke-linecap="round" stroke-linejoin="round" stroke-width="4"/>
      <path id="Path_20" data-name="Path 20" d="M667.287,382.269V361.451h0v32.182c0,7.5,19.185,13.572,42.851,13.572s42.851-6.076,42.851-13.572V361.451h0v20.818" transform="translate(-646.064 -324.852)" fill="none" stroke="#fff" stroke-linecap="round" stroke-linejoin="round" stroke-width="4"/>
      <g id="Group_380" data-name="Group 380" transform="translate(0 0)">
        <path id="Path_21" data-name="Path 21" d="M667.287,361.451v20.818c0,7.5,19.185,13.572,42.851,13.572s42.851-6.076,42.851-13.572V361.451l-42.851,18.386Z" transform="translate(-646.064 -324.852)" fill="none" stroke="#fff" stroke-linecap="round" stroke-linejoin="round" stroke-width="4"/>
        <path id="Path_22" data-name="Path 22" d="M756.323,367.2l21.223-9.106L713.471,330.6,649.4,358.093,670.62,367.2" transform="translate(-649.398 -330.6)" fill="none" stroke="#fff" stroke-linecap="round" stroke-linejoin="round" stroke-width="4"/>
      </g>
    </g>
  </g>
</svg>
