<?xml version="1.0" encoding="utf-8"?>
<!-- Generator: Adobe Illustrator 25.0.1, SVG Export Plug-In . SVG Version: 6.00 Build 0)  -->
<svg version="1.1" id="Layer_1" xmlns="http://www.w3.org/2000/svg" xmlns:xlink="http://www.w3.org/1999/xlink" x="0px" y="0px"
	 viewBox="0 0 132.9 132.8" style="enable-background:new 0 0 132.9 132.8;" xml:space="preserve">
<style type="text/css">
	.st0{fill:#0170CE;}
</style>
<path class="st0" d="M114.4,0H18.5C8.3,0,0,8.3,0,18.5c0,0,0,0,0,0v95.9c0,10.2,8.3,18.5,18.5,18.5h95.9c10.2,0,18.5-8.3,18.5-18.5
	V18.5C132.8,8.3,124.6,0,114.4,0z M124.4,114.3c0,5.5-4.5,10-10,10H18.5c-5.5,0-10-4.5-10-10V18.5c0-5.5,4.5-10,10-10h95.9
	c5.5,0,10,4.5,10,10L124.4,114.3z"/>
<path class="st0" d="M53.3,34.4H35c-5.7,0-10.4,4.6-10.4,10.4v25.3c0,5.7,4.7,10.3,10.4,10.4h8.6v1.9c-0.1,4.7-2.8,7.4-9.3,7.5h-4.1
	v8.5h4.1c12,0,18.8-5.7,19-16.1L53.3,34.4L53.3,34.4z M43.6,72H38c-2,0-3.7-1.6-3.7-3.7V46.5c0-2,1.6-3.7,3.7-3.7h5.6L43.6,72z"/>
<path class="st0" d="M97.9,34.4H60.6v46h9.7V42.8h9.3v37.6h9.7V42.8h5.6c2,0,3.7,1.6,3.7,3.7v0v34h9.7V44.8
	C108.2,39.1,103.6,34.4,97.9,34.4z"/>
<rect x="60.6" y="89.9" class="st0" width="47.6" height="8.5"/>
</svg>
