<svg id="Group_620" data-name="Group 620" xmlns="http://www.w3.org/2000/svg" xmlns:xlink="http://www.w3.org/1999/xlink" width="40" height="40" viewBox="0 0 40 40">
  <defs>
    <clipPath id="clip-path">
      <rect id="Rectangle_92" data-name="Rectangle 92" width="40" height="40" fill="#05c3dd"/>
    </clipPath>
  </defs>
  <g id="Group_620-2" data-name="Group 620" clip-path="url(#clip-path)">
    <path id="Path_631" data-name="Path 631" d="M38.845,10.561,29.439,1.155A3.944,3.944,0,0,0,26.651,0h-13.3a3.943,3.943,0,0,0-2.788,1.155L1.155,10.561A3.942,3.942,0,0,0,0,13.349v13.3a3.943,3.943,0,0,0,1.155,2.788l9.406,9.406A3.943,3.943,0,0,0,13.349,40h13.3a3.944,3.944,0,0,0,2.788-1.155l9.406-9.406A3.943,3.943,0,0,0,40,26.651v-13.3a3.942,3.942,0,0,0-1.155-2.788M30.227,23.684a8.249,8.249,0,0,1-8.24,8.24H20.221a9.293,9.293,0,0,1-6.62-2.743L8.307,23.886a1.872,1.872,0,1,1,2.645-2.65l2.8,2.794V10.95a1.5,1.5,0,1,1,3,0l0,8.24a.749.749,0,1,0,1.5,0l0-9.738a1.5,1.5,0,0,1,3,0l0,9.738a.748.748,0,1,0,1.5,0V10.95a1.5,1.5,0,1,1,3,0l0,8.24a.747.747,0,1,0,1.495,0V13.946a1.5,1.5,0,1,1,3,0Z" transform="translate(0 0)" fill="#05c3dd"/>
  </g>
</svg>
