<svg xmlns="http://www.w3.org/2000/svg" width="88.328" height="100.125" viewBox="0 0 88.328 100.125">
  <g id="Group_506" data-name="Group 506" transform="translate(-19.672 -96.96)" opacity="0.85">
    <path id="Path_417" data-name="Path 417" d="M63.836,197.085a2.093,2.093,0,0,1-.7-.121c-21.861-7.8-36.151-24.79-41.325-49.148a102.092,102.092,0,0,1-1.22-34.567,2.078,2.078,0,0,1,1.359-1.618L63.143,97.079a2.082,2.082,0,0,1,1.385,0l41.193,14.554a2.078,2.078,0,0,1,1.359,1.618,102.092,102.092,0,0,1-1.22,34.567c-5.174,24.358-19.465,41.353-41.326,49.148A2.093,2.093,0,0,1,63.836,197.085ZM24.528,115.132a101.079,101.079,0,0,0,1.378,31.943c4.893,22.869,17.651,38.247,37.93,45.719,20.278-7.472,33.037-22.85,37.93-45.72a101.117,101.117,0,0,0,1.379-31.942L63.836,101.245Z" fill="#0d355f"/>
    <path id="Path_418" data-name="Path 418" d="M59.574,155.567a2.077,2.077,0,0,1-1.372-.517l-8.47-7.431a2.08,2.08,0,1,1,2.743-3.127l6.876,6.033L74.716,132.3a2.08,2.08,0,1,1,3.18,2.681L61.165,154.828a2.08,2.08,0,0,1-1.434.733C59.678,155.565,59.626,155.567,59.574,155.567Z" transform="translate(1.171 1.381)" fill="#0d355f"/>
    <path id="Path_419" data-name="Path 419" d="M63.433,184.663a2.075,2.075,0,0,1-.713-.126c-39.021-14.254-32.592-63.9-32.522-64.4a2.081,2.081,0,0,1,1.431-1.7l31.176-9.884a2.075,2.075,0,0,1,1.257,0l31.175,9.884a2.079,2.079,0,0,1,1.431,1.7c.07.5,6.5,50.141-32.521,64.4A2.085,2.085,0,0,1,63.433,184.663ZM34.183,122c-.675,7.559-2.479,46.191,29.251,58.363C95.216,168.177,93.369,129.557,92.686,122l-29.253-9.275Z" transform="translate(0.403 0.459)" fill="#0d355f"/>
  </g>
</svg>
