<?xml version="1.0" encoding="utf-8"?>
<!-- Generator: Adobe Illustrator 26.0.2, SVG Export Plug-In . SVG Version: 6.00 Build 0)  -->
<svg version="1.1" id="Layer_1" xmlns="http://www.w3.org/2000/svg" xmlns:xlink="http://www.w3.org/1999/xlink" x="0px" y="0px"
	 viewBox="0 0 208 208" style="enable-background:new 0 0 208 208;" xml:space="preserve">
<style type="text/css">
	.st0{fill:#0D355F;}
</style>
<g id="Layer_1_00000078009298737704332970000000685171414338584495_">
	<g id="Layer_2_00000108284123735838987820000003581806864157652884_">
		<g id="Icons">
			<path class="st0" d="M104,208C46.6,208,0,161.4,0,104S46.6,0,104,0s104,46.6,104,104C207.9,161.4,161.4,207.9,104,208z M104,8
				C51,8,8,51,8,104s43,96,96,96s96-43,96-96C199.9,51,157,8.1,104,8z"/>
		</g>
	</g>
</g>
<g id="Layer_3">
	<path class="st0" d="M60.4,114.2c-1.5,0-3-0.9-3.6-2.3c-0.4-1-0.8-1.8-1.1-2.5c-1.1-2.6-1.8-4.2-6.5-11.3c-2.6-3.9-5-5.5-7-6.9
		c-4-2.7-6.8-5.2-6.1-13.6c0.8-9.9,12-9.7,19.5-9.5c3.8,0.1,8.4,0.2,10.1-0.9c4.7-2.9,6.3-8.6,8.2-15.2c0.3-1.1,0.6-2.1,0.9-3.2
		c1.2-4,4.7-8,8.4-12.3c2.4-2.8,6.7-7.8,6.8-9.7c0,0,0,0-0.1-0.1c-5.6-3.9-22.6-7.9-28.7-9.1c-2.2-0.4-3.6-2.5-3.1-4.7
		c0.4-2.2,2.5-3.6,4.7-3.1c2.4,0.5,23.8,4.8,31.7,10.5c2.5,1.7,3.2,3.9,3.4,5.5c0.6,5.2-3.9,10.4-8.7,16c-2.8,3.3-6.1,7.1-6.8,9.4
		c-0.3,1-0.6,2.1-0.9,3.1c-2.2,7.5-4.4,15.3-11.8,19.8c-3.7,2.3-8.9,2.2-14.5,2c-7.4-0.2-11.2,0.1-11.3,2.2
		c-0.3,4.4,0.1,4.6,2.6,6.4c2.4,1.6,5.7,3.8,9.2,9.1c5.1,7.8,6,9.7,7.2,12.6c0.3,0.7,0.6,1.4,1,2.3c0.9,2,0,4.4-2,5.3
		C61.5,114.1,61,114.2,60.4,114.2z"/>
	<path class="st0" d="M37.1,142.3c-0.4,0-0.8-0.1-1.1-0.2c-2.1-0.6-3.3-2.8-2.7-5c1.9-6.4,5.2-10.6,7.8-14c3.5-4.5,5-6.7,3.8-10.9
		c-1.1-3.8-8.5-7.8-12.5-10c-1.2-0.7-2.3-1.2-3.1-1.8c-4.8-2.9-6.9-10.2-8.9-17.3c-0.4-1.3-0.7-2.6-1.1-3.7
		c-1.6-5.2-0.6-14.1,2.9-27.1c2.5-9.2,5.3-17,5.5-17.3c0.8-2.1,3.1-3.1,5.1-2.4c2.1,0.8,3.1,3.1,2.4,5.1
		C30.9,49.3,24.9,70.3,26.9,77c0.4,1.2,0.8,2.5,1.1,3.9c1.3,4.5,3.2,11.3,5.4,12.6c0.7,0.4,1.7,1,2.8,1.6
		c5.7,3.1,14.3,7.9,16.3,14.8c2.4,8.3-1.4,13.3-5.1,18.1c-2.5,3.2-5,6.5-6.5,11.4C40.4,141.2,38.8,142.3,37.1,142.3z"/>
	<path class="st0" d="M76.3,201.7c-0.4,0-0.9-0.1-1.3-0.2c-2.1-0.7-3.2-3-2.5-5.1c2.6-7.4,9.1-25.1,14.3-28.7
		c4.6-3.1,14.8-13.1,11.9-18.4c-2.9-5.2-6.5-8.9-10.1-12.5c-3.4-3.5-6.7-6.8-8.4-10.9c-2.3-5.5-4.5-10.7-20.2-11.8
		c-2.2-0.2-3.9-2.1-3.7-4.3c0.2-2.2,2.1-3.9,4.3-3.7c19,1.4,23.6,8.6,27,16.6c1.1,2.7,3.7,5.3,6.7,8.4c3.7,3.8,8,8.1,11.4,14.3
		c6.2,11.3-8.7,25-14.5,28.8c-2.2,1.7-7.6,14.2-11.3,24.7C79.5,200.7,78,201.7,76.3,201.7z"/>
	<path class="st0" d="M58.1,192.4c-2,0-3.7-1.5-4-3.6c-0.5-4.7-0.9-8.4-1.2-11.4c-1-9.8-1-10.1-3.1-12.6c-2.1-2.4-4.1-4.6-6.1-6.8
		c-7.4-7.9-13.2-14.2-10.5-21.3c0.8-2.1,3.1-3.1,5.2-2.3c2.1,0.8,3.1,3.1,2.3,5.2c-1,2.5,4,7.9,8.8,13c2,2.1,4.2,4.5,6.4,7
		c3.8,4.4,4,6.9,5,17c0.3,2.9,0.6,6.6,1.2,11.3c0.2,2.2-1.3,4.2-3.5,4.4C58.4,192.4,58.2,192.4,58.1,192.4z"/>
	<path class="st0" d="M200.7,100.1c-0.8-0.9-5.5-4.5-8.6-7c-1-0.8-2-1.5-2.9-2.3c-3.7-2.9-16.5-7.7-31-9.4
		c-16.3-1.8-22.3-7.7-26.8-16.5c-3.6-7.2,0.6-18.6,5.3-29.7c0.7-1.7,1.3-3.1,1.6-4c2.6-7.4,13-9.8,21.4-11.8
		c0.7-0.2,1.4-0.3,2.1-0.5l2.1,8.7c-0.7,0.2-1.4,0.3-2.2,0.5c-4.2,1-14,3.3-14.9,6c-0.4,1.2-1.1,2.7-1.8,4.5
		c-2.1,4.9-7.6,18.1-5.6,22.1c3,5.9,6.1,10.1,19.8,11.7c16.1,1.8,30.4,7.1,35.6,11.2c0.9,0.7,1.9,1.5,2.9,2.3
		c5.2,4.1,8.4,6.6,9.6,7.9L200.7,100.1z"/>
	<path class="st0" d="M172.4,181.7l-2-0.2c-1.5-0.1-3.7-1-5.2-2.9c-1-1.3-2-3.4-1.4-6.8c0.3-3.3-5-18.3-7.2-20.7
		c-1.7-1.6-11.2-4.5-15.7-5.8c-3.3-1-6.1-1.8-7.9-2.6c-11-4.4-11.9-20.7-11.5-34.3c0.5-12,10.9-20.5,26.6-21.9
		c11.1-0.9,17.4,2.1,24.7,5.7c1.6,0.8,3.2,1.5,4.9,2.3l0,0c10.4,4.8,13.3,6.8,17.9,15.6c3.8,7.2,2.8,21.5,1.4,35.5
		c-0.1,1.4-0.3,2.6-0.3,3.7c-0.7,9.3-17.5,26-22.7,30.9L172.4,181.7z M151.8,95.4c-1,0-2,0-3.1,0.1c-8.3,0.7-18,4.6-18.4,13.2
		c-0.3,10.5,0.5,23.5,5.9,25.7c1.5,0.6,4.2,1.4,7.2,2.3c10,3,16.7,5.2,19.6,8.1c3.5,3.5,8.3,16.4,9.5,24.1
		c7.8-8.1,14.9-17.1,15.2-20.3c0.1-1.1,0.2-2.4,0.4-3.8c0.8-8.1,2.4-25-0.5-30.4c-3.4-6.4-4.4-7.3-13.7-11.6
		c-1.8-0.8-3.5-1.6-5.1-2.4C162.7,97.5,158.5,95.4,151.8,95.4z"/>
</g>
</svg>
