<svg xmlns="http://www.w3.org/2000/svg" width="150" height="80.586" viewBox="0 0 150 80.586">
  <g id="socialinvestment_resources" transform="translate(-18.204 -130.781)">
    <g id="Group_409" data-name="Group 409" transform="translate(20.461 130.781)">
      <path id="Path_81" data-name="Path 81" d="M357.54,150.32a10.02,10.02,0,1,0-10.02,10.02A10.019,10.019,0,0,0,357.54,150.32Z" transform="translate(-238.191 -137.272)" fill="none"/>
      <path id="Path_82" data-name="Path 82" d="M86.24,150.32a10.02,10.02,0,1,0-10.02,10.02h0A10.019,10.019,0,0,0,86.24,150.32Z" transform="translate(-53.19 -137.272)" fill="none"/>
      <path id="Path_83" data-name="Path 83" d="M221.94,150.32a10.02,10.02,0,1,0-10.02,10.02A10.019,10.019,0,0,0,221.94,150.32Z" transform="translate(-145.724 -137.272)" fill="none"/>
      <path id="Path_84" data-name="Path 84" d="M416,220.5c.191.159.382.35.573.509A1.743,1.743,0,0,0,416,220.5Z" transform="translate(-291.72 -191.961)" fill="#0d355f"/>
      <path id="Path_85" data-name="Path 85" d="M150.152,159.829c-.191-.159-.382-.35-.573-.509a22.455,22.455,0,0,0-8.016-4.422,13.046,13.046,0,1,0-13.805,0A23.238,23.238,0,0,0,113.094,168.7,23.238,23.238,0,0,0,98.43,154.9a13.046,13.046,0,1,0-13.805,0A23.238,23.238,0,0,0,69.961,168.7,23.238,23.238,0,0,0,55.3,154.9a13.046,13.046,0,1,0-13.805,0A23.15,23.15,0,0,0,25.3,176.943a1.527,1.527,0,0,0,1.527,1.527,1.507,1.507,0,0,0,1.527-1.527,20.026,20.026,0,1,1,40.048-.509v.477a1.527,1.527,0,0,0,3.054,0h0a20.056,20.056,0,0,1,40.112,0,1.527,1.527,0,1,0,3.054,0,20.056,20.056,0,0,1,32.891-15.65,2.884,2.884,0,0,0,1.4.922,1.527,1.527,0,0,0,1.527-1.527A1.978,1.978,0,0,0,150.152,159.829ZM48.33,153.849a10.02,10.02,0,1,1,10.02-10.02,10.019,10.019,0,0,1-10.02,10.02Zm43.166,0a10.02,10.02,0,1,1,10.02-10.02A10.019,10.019,0,0,1,91.5,153.849Zm33.114-10.02a10.02,10.02,0,1,1,10.02,10.02A10.019,10.019,0,0,1,124.609,143.829Z" transform="translate(-25.3 -130.781)" fill="#0d355f"/>
    </g>
    <path id="Path_86" data-name="Path 86" d="M166.968,208.217l-9.871-2.2a1.578,1.578,0,1,0-.694,3.08l6.024,1.351-97.011,48.52-13.5-26.145a1.57,1.57,0,0,0-.946-.786,1.673,1.673,0,0,0-1.23.126L19.023,249.069a1.576,1.576,0,1,0,1.514,2.765l29.3-16.121L63.3,261.8a1.585,1.585,0,0,0,1.419.848,1.724,1.724,0,0,0,.694-.157l98.84-49.494-1.514,6.725a1.581,1.581,0,0,0,1.2,1.885,1.3,1.3,0,0,0,.347.031,1.583,1.583,0,0,0,1.545-1.226l2.334-10.307A1.581,1.581,0,0,0,166.968,208.217Z" transform="translate(0 -51.278)" fill="#0d355f"/>
  </g>
</svg>
