<?xml version="1.0" encoding="utf-8"?>
<!-- Generator: Adobe Illustrator 26.0.2, SVG Export Plug-In . SVG Version: 6.00 Build 0)  -->
<svg version="1.1" id="Layer_1" xmlns="http://www.w3.org/2000/svg" xmlns:xlink="http://www.w3.org/1999/xlink" x="0px" y="0px"
	 viewBox="0 0 48 56" style="enable-background:new 0 0 48 56;" xml:space="preserve">
<style type="text/css">
	.st0{fill:none;stroke:#0D355F;stroke-width:2;stroke-linecap:round;stroke-linejoin:round;}
	.st1{fill:none;stroke:#0D355F;stroke-width:2;stroke-linejoin:round;}
</style>
<line class="st0" x1="5" y1="12.3" x2="7.3" y2="14.3"/>
<line class="st0" x1="1.8" y1="24" x2="5" y2="24"/>
<line class="st0" x1="12.6" y1="5" x2="14" y2="7.7"/>
<line class="st0" x1="40.4" y1="14.5" x2="42.7" y2="12.5"/>
<line class="st0" x1="42.7" y1="24.2" x2="45.9" y2="24.2"/>
<line class="st0" x1="33.6" y1="7.9" x2="35.1" y2="5.2"/>
<line class="st0" x1="24" y1="2.3" x2="24" y2="5"/>
<path class="st1" d="M29,45v6c0,1.1-0.9,2-2,2h-6c-1.1,0-2-0.9-2-2v-6"/>
<path class="st1" d="M26,53c0,1.1-0.9,2-2,2s-2-0.9-2-2"/>
<line class="st0" x1="19.5" y1="49" x2="29" y2="49"/>
<path class="st0" d="M24,9c8.3,0,15,6.7,15,15c0,4.2-1.7,8.1-4.8,11c-2,1.9-3.2,4.5-3.2,7.3V43c0,1.1-0.9,2-2,2H19c-1.1,0-2-0.9-2-2
	v-0.7c0-2.8-1.1-5.4-3.2-7.3c-6-5.6-6.4-15.1-0.8-21.2C15.9,10.7,19.8,9,24,9z"/>
<path class="st0" d="M23.8,15.2c3.2,0,5.9,1.5,7.5,4"/>
<path class="st0" d="M32.6,22.4c0.2,0.7,0.2,1,0.2,1.8"/>
</svg>
