<svg xmlns="http://www.w3.org/2000/svg" width="129.048" height="91.533" viewBox="0 0 129.048 91.533">
  <path id="users-solid" d="M18.757,69.514a12.5,12.5,0,1,0-12.5-12.5A12.516,12.516,0,0,0,18.757,69.514Zm87.533,0a12.5,12.5,0,1,0-12.5-12.5A12.516,12.516,0,0,0,106.291,69.514Zm6.252,6.252h-12.5c-7.868.19-9.688,7.132-11.955,9.379,7.874,4.318,10.144,6.37,11.356,15.631H118.8a6.246,6.246,0,0,0,6.252-6.252V88.272A12.516,12.516,0,0,0,112.543,75.767Zm-50.019,0A21.883,21.883,0,1,0,40.641,53.883,21.872,21.872,0,0,0,62.524,75.767ZM77.53,82.019H75.908a30.213,30.213,0,0,1-26.768,0H47.518A22.514,22.514,0,0,0,25.01,104.528v5.627a9.381,9.381,0,0,0,9.379,9.379H90.66a9.381,9.381,0,0,0,9.379-9.379v-5.627A22.514,22.514,0,0,0,77.53,82.019ZM35.914,84.6c-2.266-2.247-3.414-8.663-10.9-8.837H12.5A12.516,12.516,0,0,0,0,88.272v6.252a6.246,6.246,0,0,0,6.252,6.252H25.589c1.231-9.261,5.72-11.394,10.325-16.173Z" transform="translate(2 -30)" fill="none" stroke="#07478c" stroke-width="4"/>
</svg>
