<svg xmlns="http://www.w3.org/2000/svg" width="150" height="145.235" viewBox="0 0 150 145.235">
  <g id="socialinvestment_placemaking" transform="translate(-22 -33)">
    <path id="Path_87" data-name="Path 87" d="M170.357,245.717h-7.822V227.911a1.652,1.652,0,0,0-1.643-1.693h-.723V180.857h.723a1.652,1.652,0,0,0,1.643-1.693V169.72l7-19.194v-.068a2.2,2.2,0,0,0,.066-.237v-.406c0-.1-.033-.2-.033-.271,0-.034,0-.068-.033-.068-.033-.068-.033-.135-.066-.2a.119.119,0,0,0-.033-.068l-.1-.2c0-.034-.033-.034-.033-.068-.066-.068-.1-.135-.164-.2l-14.2-14.624a1.594,1.594,0,0,0-2.333,0l-14.2,14.624a.893.893,0,0,0-.164.2c0,.034-.033.034-.033.068l-.1.2a.119.119,0,0,1-.033.068.491.491,0,0,0-.066.2c0,.034,0,.068-.033.068a.865.865,0,0,0-.033.271v.406a.882.882,0,0,0,.066.237v.068l7,19.194v9.445a1.652,1.652,0,0,0,1.643,1.693h.723v45.361h-.723a1.652,1.652,0,0,0-1.643,1.693v17.806H134.106V234.478h3.089a1.652,1.652,0,0,0,1.643-1.693v-9.749a1.652,1.652,0,0,0-1.643-1.693h-7.822v-3.927h3.089a1.652,1.652,0,0,0,1.643-1.693v-9.749a1.652,1.652,0,0,0-1.643-1.693h-3.089v-3.927h3.089a1.652,1.652,0,0,0,1.643-1.693v-9.749a1.652,1.652,0,0,0-1.643-1.693H61.472a1.652,1.652,0,0,0-1.643,1.693v9.749a1.652,1.652,0,0,0,1.643,1.693h3.089v3.927H61.472a1.652,1.652,0,0,0-1.643,1.693v9.749a1.652,1.652,0,0,0,1.643,1.693h3.089v3.927H56.739a1.652,1.652,0,0,0-1.643,1.693v9.749a1.652,1.652,0,0,0,1.643,1.693h3.089v11.239H48.95V227.911a1.652,1.652,0,0,0-1.643-1.693h-.723V180.857h.723a1.652,1.652,0,0,0,1.643-1.693V169.72l7-19.194v-.068a2.207,2.207,0,0,0,.066-.237v-.406c0-.1-.033-.2-.033-.271,0-.034,0-.068-.033-.068-.033-.068-.033-.135-.066-.2a.119.119,0,0,0-.033-.068l-.1-.2c0-.034-.033-.034-.033-.068-.066-.068-.1-.135-.164-.2L41.391,134.108a1.594,1.594,0,0,0-2.333,0l-14.2,14.624a.892.892,0,0,0-.164.2c0,.034-.033.034-.033.068l-.1.2c0,.034-.033.068-.033.1-.033.068-.033.135-.066.2,0,.034,0,.068-.033.068a.865.865,0,0,0-.033.271v.406a.881.881,0,0,0,.066.237v.068l7,19.194V179.2a1.652,1.652,0,0,0,1.643,1.693h.723v45.361h-.723a1.652,1.652,0,0,0-1.643,1.693v17.806H23.643a1.693,1.693,0,0,0,0,3.385H170.357A1.652,1.652,0,0,0,172,247.443,1.682,1.682,0,0,0,170.357,245.717Zm-22.02-68.245v-6.364h10.911v6.364Zm-6.343-25.829h10.188v16.113h-4.305Zm23.631,0-5.85,16.113h-4.338V151.643ZM153.792,137.7l10.221,10.528H143.538ZM150.7,180.857h6.179v45.361H150.7ZM148.337,229.6h10.911v16.113H148.337Zm-17.485,16.113h-6.179V234.478h6.179Zm-9.465-11.239v11.239H72.614V234.478Zm4.733-13.135H119.94v-3.927h6.179Zm-48.773,0v-3.927h39.308v3.927Zm48.773-17.061H119.94v-3.927h6.179Zm-48.773,0v-3.927h39.308v3.927Zm-14.2-13.676h67.7v6.364h-67.7Zm4.733,9.749H74.06v3.927H67.881Zm-4.733,7.312h67.7v6.364h-67.7Zm4.733,9.749H74.06v3.927H67.881Zm-9.465,7.312h77.169v6.364H58.415Zm4.733,9.749h6.179v11.239H63.148Zm-28.4-57.006v-6.364H45.663v6.364Zm-6.343-25.829H38.6v16.113H34.259Zm23.631,0-5.85,16.113H41.851V151.643ZM40.208,137.7l10.221,10.528H29.986Zm-3.089,43.161H43.3v45.361H37.118ZM34.752,229.6H45.663v16.113H34.752Z" transform="translate(0 -70.901)" fill="#00478c"/>
    <path id="Path_88" data-name="Path 88" d="M114.048,60.868a10.677,10.677,0,0,0,8.376-.679,9.961,9.961,0,0,0,7.608,3.365,10.531,10.531,0,0,0,3.141-.472,9.139,9.139,0,0,0,4.432-2.893,10.664,10.664,0,0,0,11.273-.827,19.6,19.6,0,0,0,17.52,0,9.614,9.614,0,0,0,2.9,1.535,10.677,10.677,0,0,0,8.376-.679,8.855,8.855,0,0,0,3.665,2.627,10.516,10.516,0,0,0,3.909.738,10.758,10.758,0,0,0,3.176-.472,9.14,9.14,0,0,0,4.432-2.893,10.607,10.607,0,0,0,11.273-.856,7.029,7.029,0,0,0,.523-11.1,10.056,10.056,0,0,0-6.84-2.539h-.035a8.313,8.313,0,0,0-1.5.118,10.557,10.557,0,0,0-4.537-4.812,13.438,13.438,0,0,0-8.865-1.447,11.457,11.457,0,0,0-8.585,6.022C173.342,38.52,166.223,33,157.568,33c-8.62,0-15.775,5.521-16.717,12.606-2.094-4.369-7.643-7-13.262-6.022a11.341,11.341,0,0,0-8.69,6.288,10.666,10.666,0,0,0-5.27.561,8.558,8.558,0,0,0-4.921,4.34,6.773,6.773,0,0,0,.14,6.022A9.437,9.437,0,0,0,114.048,60.868Zm62.261-11.956a1.487,1.487,0,0,0,.872-1,7.746,7.746,0,0,1,6.491-5.491c4.5-.768,8.865,1.683,9.807,5.491a1.55,1.55,0,0,0,.873,1,2.087,2.087,0,0,0,1.466.089,6.177,6.177,0,0,1,2.094-.325h.035A6.2,6.2,0,0,1,202.2,50.27a4.461,4.461,0,0,1,1.536,3.513,4.667,4.667,0,0,1-1.85,3.395,6.539,6.539,0,0,1-8.167-.266,1.914,1.914,0,0,0-1.64-.443,1.689,1.689,0,0,0-1.291.945,5.461,5.461,0,0,1-3.455,2.923,6.617,6.617,0,0,1-4.4-.177,5.287,5.287,0,0,1-2.966-2.745,1.689,1.689,0,0,0-1.291-.945,1.4,1.4,0,0,0-.349-.03,2,2,0,0,0-1.291.472,6.509,6.509,0,0,1-6.387,1.24,5.974,5.974,0,0,1-2.373-1.476l-.1-.177a.394.394,0,0,0-.174-.148,4.283,4.283,0,0,1-.524-.827,4.067,4.067,0,0,1-.07-3.749c1.152-2.509,4.537-3.749,7.5-2.775A1.921,1.921,0,0,0,176.309,48.912ZM157.672,35.923c6.805,0,12.459,4.369,13.227,9.949a10.684,10.684,0,0,0-1.919.5,8.558,8.558,0,0,0-4.921,4.34,6.773,6.773,0,0,0,.14,6.022c.035.089.1.148.14.236a15.509,15.509,0,0,1-13.332,0,7.253,7.253,0,0,0,.907-3.07,7.126,7.126,0,0,0-2.443-5.639,9.748,9.748,0,0,0-5.026-2.391C145.213,40.262,150.867,35.923,157.672,35.923ZM112.058,51.776c1.152-2.509,4.537-3.749,7.5-2.775a2.087,2.087,0,0,0,1.466-.089,1.487,1.487,0,0,0,.872-1,7.746,7.746,0,0,1,6.491-5.491c4.5-.768,8.865,1.683,9.807,5.491a1.55,1.55,0,0,0,.872,1,2.087,2.087,0,0,0,1.466.089,6.177,6.177,0,0,1,2.094-.325h.035a6.2,6.2,0,0,1,4.258,1.594,4.461,4.461,0,0,1,1.536,3.513,4.328,4.328,0,0,1-.977,2.539,1.374,1.374,0,0,0-.209.207.72.72,0,0,0-.14.207,3.485,3.485,0,0,1-.524.443,6.539,6.539,0,0,1-8.167-.266,1.914,1.914,0,0,0-1.64-.443,1.689,1.689,0,0,0-1.291.945,5.461,5.461,0,0,1-3.455,2.923c-2.966.915-6.282-.384-7.364-2.923a1.689,1.689,0,0,0-1.291-.945,1.4,1.4,0,0,0-.349-.03,2,2,0,0,0-1.291.472,6.509,6.509,0,0,1-6.387,1.24,5.47,5.47,0,0,1-3.211-2.6A4.238,4.238,0,0,1,112.058,51.776Z" transform="translate(-60.66)" fill="#00478c"/>
  </g>
</svg>
